<svg width="32" height="32" viewBox="0 0 32 32" fill="none" xmlns="http://www.w3.org/2000/svg">
<path d="M12 29.3333H20C26.6667 29.3333 29.3333 26.6666 29.3333 20V12C29.3333 5.33329 26.6667 2.66663 20 2.66663H12C5.33332 2.66663 2.66666 5.33329 2.66666 12V20C2.66666 26.6666 5.33332 29.3333 12 29.3333Z" stroke="#383535" stroke-width="1.5" stroke-linecap="round" stroke-linejoin="round"/>
<path d="M8.93335 12.3467L16 16.44L23.0133 12.3733" stroke="#383535" stroke-width="1.5" stroke-linecap="round" stroke-linejoin="round"/>
<path d="M16 23.6933V16.4266" stroke="#383535" stroke-width="1.5" stroke-linecap="round" stroke-linejoin="round"/>
<path d="M14.3467 8.38668L10.08 10.76C9.11999 11.2933 8.31998 12.64 8.31998 13.7467V18.2667C8.31998 19.3733 9.10665 20.72 10.08 21.2533L14.3467 23.6267C15.2533 24.1333 16.7467 24.1333 17.6667 23.6267L21.9333 21.2533C22.8933 20.72 23.6933 19.3733 23.6933 18.2667V13.7333C23.6933 12.6267 22.9067 11.28 21.9333 10.7467L17.6667 8.37334C16.7467 7.86668 15.2533 7.86668 14.3467 8.38668Z" stroke="#383535" stroke-width="1.5" stroke-linecap="round" stroke-linejoin="round"/>
</svg>
