<svg width="32" height="32" viewBox="0 0 32 32" fill="none" xmlns="http://www.w3.org/2000/svg">
<path d="M29.3333 14V20.6666C29.3333 25.3333 26.6667 27.3333 22.6667 27.3333H9.33332C5.33332 27.3333 2.66666 25.3333 2.66666 20.6666V11.3333C2.66666 6.66663 5.33332 4.66663 9.33332 4.66663H18.6667" stroke="#383535" stroke-width="1.5" stroke-miterlimit="10" stroke-linecap="round" stroke-linejoin="round"/>
<path d="M9.33334 12L13.5067 15.3333C14.88 16.4267 17.1333 16.4267 18.5067 15.3333L20.08 14.08" stroke="#383535" stroke-width="1.5" stroke-miterlimit="10" stroke-linecap="round" stroke-linejoin="round"/>
<path d="M26 10.6667C27.8409 10.6667 29.3333 9.17428 29.3333 7.33333C29.3333 5.49238 27.8409 4 26 4C24.159 4 22.6667 5.49238 22.6667 7.33333C22.6667 9.17428 24.159 10.6667 26 10.6667Z" stroke="#383535" stroke-width="1.5" stroke-miterlimit="10" stroke-linecap="round" stroke-linejoin="round"/>
</svg>
