<svg width="32" height="32" viewBox="0 0 32 32" fill="none" xmlns="http://www.w3.org/2000/svg">
<path d="M24.1867 28.8266C23.0134 29.1733 21.6267 29.3333 20 29.3333H12C10.3734 29.3333 8.98669 29.1733 7.81335 28.8266C8.10669 25.36 11.6667 22.6266 16 22.6266C20.3334 22.6266 23.8934 25.36 24.1867 28.8266Z" stroke="#383535" stroke-width="1.5" stroke-linecap="round" stroke-linejoin="round"/>
<path d="M20 2.66663H12C5.33335 2.66663 2.66669 5.33329 2.66669 12V20C2.66669 25.04 4.18669 27.8 7.81335 28.8266C8.10669 25.36 11.6667 22.6266 16 22.6266C20.3334 22.6266 23.8934 25.36 24.1867 28.8266C27.8134 27.8 29.3334 25.04 29.3334 20V12C29.3334 5.33329 26.6667 2.66663 20 2.66663ZM16 18.8933C13.36 18.8933 11.2267 16.7466 11.2267 14.1066C11.2267 11.4666 13.36 9.33329 16 9.33329C18.64 9.33329 20.7734 11.4666 20.7734 14.1066C20.7734 16.7466 18.64 18.8933 16 18.8933Z" stroke="#383535" stroke-width="1.5" stroke-linecap="round" stroke-linejoin="round"/>
<path d="M20.7734 14.1067C20.7734 16.7467 18.64 18.8934 16 18.8934C13.36 18.8934 11.2267 16.7467 11.2267 14.1067C11.2267 11.4667 13.36 9.33337 16 9.33337C18.64 9.33337 20.7734 11.4667 20.7734 14.1067Z" stroke="#383535" stroke-width="1.5" stroke-linecap="round" stroke-linejoin="round"/>
</svg>
